<svg width="25" height="25" viewBox="0 0 25 25" fill="none" xmlns="http://www.w3.org/2000/svg">
<path fill-rule="evenodd" clip-rule="evenodd" d="M16.5716 2.08333C19.8466 2.08333 22.0466 4.32604 22.0466 7.66354V17.2427C22.0466 20.6094 19.9143 22.799 16.6143 22.8198L8.60074 22.8229C5.32574 22.8229 3.12469 20.5802 3.12469 17.2427V7.66354C3.12469 4.29583 5.25699 2.10729 8.55699 2.08749L16.5705 2.08333H16.5716ZM16.5716 3.64583L8.5622 3.64999C6.13719 3.66458 4.68719 5.16458 4.68719 7.66354V17.2427C4.68719 19.7583 6.15074 21.2604 8.5997 21.2604L16.6091 21.2573C19.0341 21.2427 20.4841 19.7406 20.4841 17.2427V7.66354C20.4841 5.14791 19.0216 3.64583 16.5716 3.64583ZM16.3706 16.1184C16.8019 16.1184 17.1519 16.4684 17.1519 16.8997C17.1519 17.3309 16.8019 17.6809 16.3706 17.6809H8.8498C8.41855 17.6809 8.06855 17.3309 8.06855 16.8997C8.06855 16.4684 8.41855 16.1184 8.8498 16.1184H16.3706ZM16.3706 11.7575C16.8019 11.7575 17.1519 12.1075 17.1519 12.5387C17.1519 12.97 16.8019 13.32 16.3706 13.32H8.8498C8.41855 13.32 8.06855 12.97 8.06855 12.5387C8.06855 12.1075 8.41855 11.7575 8.8498 11.7575H16.3706ZM11.7193 7.40666C12.1505 7.40666 12.5005 7.75666 12.5005 8.18791C12.5005 8.61916 12.1505 8.96916 11.7193 8.96916H8.84949C8.41824 8.96916 8.06824 8.61916 8.06824 8.18791C8.06824 7.75666 8.41824 7.40666 8.84949 7.40666H11.7193Z" fill="url(#paint0_linear_118_149)"/>
<defs>
<linearGradient id="paint0_linear_118_149" x1="21.19" y1="1.50264" x2="2.67674" y2="22.1655" gradientUnits="userSpaceOnUse">
<stop offset="0.09375" stop-color="white"/>
<stop offset="1" stop-color="white" stop-opacity="0.2"/>
</linearGradient>
</defs>
</svg>
