<svg width="25" height="25" viewBox="0 0 25 25" fill="none" xmlns="http://www.w3.org/2000/svg">
<path fill-rule="evenodd" clip-rule="evenodd" d="M14.2883 15.9284C15.5425 15.9284 16.5633 16.942 16.5633 18.1878V21.392C16.5633 21.6597 16.7779 21.8743 17.0529 21.8805H19.0383C20.6029 21.8805 21.8748 20.6243 21.8748 19.0805V9.99302C21.8675 9.46177 21.6144 8.96177 21.18 8.62948L14.3123 3.15239C13.3904 2.42219 12.1008 2.42219 11.1758 3.15448L4.35501 8.6274C3.90396 8.9701 3.65084 9.4701 3.64563 10.0107V19.0805C3.64563 20.6243 4.9175 21.8805 6.48209 21.8805H8.48626C8.76855 21.8805 8.99771 21.6566 8.99771 21.3816C8.99771 21.3211 9.005 21.2607 9.0175 21.2034V18.1878C9.0175 16.9493 10.0321 15.9368 11.2769 15.9284H14.2883ZM19.0383 23.443H17.0342C15.8863 23.4159 15.0008 22.5149 15.0008 21.392V18.1878C15.0008 17.8034 14.681 17.4909 14.2883 17.4909H11.2821C10.8977 17.493 10.58 17.8066 10.58 18.1878V21.3816C10.58 21.4597 10.5696 21.5347 10.5477 21.6055C10.4352 22.6368 9.55396 23.443 8.48626 23.443H6.48209C4.05605 23.443 2.08313 21.4857 2.08313 19.0805V10.0034C2.09355 8.96802 2.57063 8.0201 3.39459 7.39615L10.2019 1.9326C11.7008 0.745103 13.7894 0.745103 15.2852 1.93052L22.1415 7.39927C22.9467 8.01281 23.4238 8.95865 23.4373 9.98156V19.0805C23.4373 21.4857 21.4644 23.443 19.0383 23.443Z" fill="url(#paint0_linear_118_134)"/>
<defs>
<linearGradient id="paint0_linear_118_134" x1="22.4707" y1="0.414501" x2="2.58857" y2="23.5999" gradientUnits="userSpaceOnUse">
<stop offset="0.09375" stop-color="white"/>
<stop offset="1" stop-color="white" stop-opacity="0.2"/>
</linearGradient>
</defs>
</svg>
