<svg width="25" height="25" viewBox="0 0 25 25" fill="none" xmlns="http://www.w3.org/2000/svg">
<path d="M9.51538 21.6389V18.4538C9.51538 17.6407 10.1793 16.9816 10.9984 16.9816H13.9923C14.3856 16.9816 14.7628 17.1367 15.0409 17.4128C15.319 17.6889 15.4753 18.0633 15.4753 18.4538V21.6389C15.4728 21.9769 15.6063 22.302 15.8462 22.5419C16.0861 22.7818 16.4125 22.9167 16.7531 22.9167H18.7956C19.7496 22.9191 20.6654 22.5446 21.3408 21.8758C22.0162 21.2071 22.3958 20.2989 22.3958 19.3519V10.278C22.3958 9.51298 22.0542 8.78734 21.4631 8.29653L14.5146 2.78737C13.3059 1.82142 11.5741 1.85261 10.4014 2.86144L3.61146 8.29653C2.99243 8.77287 2.62244 9.50066 2.60416 10.278V19.3426C2.60416 21.3165 4.21601 22.9167 6.20434 22.9167H8.20029C8.90752 22.9167 9.48228 22.3502 9.4874 21.6482L9.51538 21.6389Z" fill="url(#paint0_linear_118_139)"/>
<defs>
<linearGradient id="paint0_linear_118_139" x1="21.4999" y1="1.50002" x2="2.99991" y2="23" gradientUnits="userSpaceOnUse">
<stop offset="0.09375" stop-color="white"/>
<stop offset="1" stop-color="white" stop-opacity="0.2"/>
</linearGradient>
</defs>
</svg>
